<svg fill="none" height="14" viewBox="0 0 14 14" width="14" xmlns="http://www.w3.org/2000/svg"><g fill="#000"><path clip-rule="evenodd" d="m4 3c0-1.65685 1.34315-3 3-3s3 1.34315 3 3v2c0 1.65685-1.34315 3-3 3s-3-1.34315-3-3zm5 0v2c0 1.10457-.89543 2-2 2s-2-.89543-2-2v-2c0-1.10457.89543-2 2-2s2 .89543 2 2z" fill-rule="evenodd"/><path d="m3.50875 7h.02653c.69162 1.1956 1.9843 2 3.46487 2 1.48056 0 2.77325-.8044 3.46485-2h.0265c.893 0 1.6778.59195 1.9231 1.45056l.8571 3.00004c.3651 1.2776-.5943 2.5494-1.923 2.5494h-8.69709c-1.32876 0-2.288088-1.2718-1.92305-2.5494l.85714-3.00004c.24532-.8586 1.03009-1.45056 1.92305-1.45056z"/></g></svg>