<svg viewBox="0 0 50 50" xmlns="http://www.w3.org/2000/svg"><path d="m28 3v1h-2v7h6v-7h-2v-1zm6 5v4h-19v-2h-2v13h-2v-11h-1c-2.804687 0-5 2.195313-5 5 0 2.351563.960938 9.808594 1 10.125l.125.875h3.875v1h-1v2h4v-2h-1v-1h3.78125l.8125-3.25c.109375-.445312.507813-.75.96875-.75h5.28125c.976563 0 1.808594.664063 1.96875 1.59375.128906.730469.1875 1.546875.1875 2.40625s-.058594 1.675781-.1875 2.40625c-.160156.929688-.992187 1.59375-1.96875 1.59375h-14.84375c-2.757812 0-5 2.242188-5 5v5c0 1.652344 1.347656 3 3 3h2v1h5v-1h20v1h5v-1h2c1.652344 0 3-1.347656 3-3v-25c0-2.757812-2.242187-5-5-5h-2v-4zm10.71875 7c.191406.632813.28125 1.304688.28125 2v7h2v-9zm-10.71875 2c1.652344 0 3 1.347656 3 3s-1.347656 3-3 3-3-1.347656-3-3 1.347656-3 3-3zm0 2c-.550781 0-1 .449219-1 1s.449219 1 1 1 1-.449219 1-1-.449219-1-1-1zm0 8c2.757813 0 5 2.242188 5 5 0 2.757813-2.242187 5-5 5-2.757812 0-5-2.242187-5-5 0-2.757812 2.242188-5 5-5zm0 2c-1.65625 0-3 1.34375-3 3s1.34375 3 3 3 3-1.34375 3-3-1.34375-3-3-3z"/></svg>